<?xml version="1.0" encoding="UTF-8" standalone="no"?>
<svg
   fill="#F0F0F0"
   width="30"
   height="30"
   viewBox="0 0 15 15"
   id="arrow"
   version="1.1"
   transform="matrix(-1.8369701987210297e-16,-1,1,-1.8369701987210297e-16,0,0)"
   sodipodi:docname="arrow-up.svg"
   inkscape:version="1.1.2 (0a00cf5339, 2022-02-04)"
   xmlns:inkscape="http://www.inkscape.org/namespaces/inkscape"
   xmlns:sodipodi="http://sodipodi.sourceforge.net/DTD/sodipodi-0.dtd"
   xmlns="http://www.w3.org/2000/svg"
   xmlns:svg="http://www.w3.org/2000/svg">
  <defs
     id="defs935" />
  <sodipodi:namedview
     id="namedview933"
     pagecolor="#ffffff"
     bordercolor="#666666"
     borderopacity="1.0"
     inkscape:pageshadow="2"
     inkscape:pageopacity="0.0"
     inkscape:pagecheckerboard="0"
     showgrid="false"
     inkscape:zoom="26.9"
     inkscape:cx="14.981413"
     inkscape:cy="15"
     inkscape:window-width="1850"
     inkscape:window-height="1016"
     inkscape:window-x="70"
     inkscape:window-y="27"
     inkscape:window-maximized="1"
     inkscape:current-layer="arrow" />
  <path
     d="M8.29289 2.29289C8.68342 1.90237 9.31658 1.90237 9.70711 2.29289L14.2071 6.79289C14.5976 7.18342 14.5976 7.81658 14.2071 8.20711L9.70711 12.7071C9.31658 13.0976 8.68342 13.0976 8.29289 12.7071C7.90237 12.3166 7.90237 11.6834 8.29289 11.2929L11 8.5H1.5C0.947715 8.5 0.5 8.05228 0.5 7.5C0.5 6.94772 0.947715 6.5 1.5 6.5H11L8.29289 3.70711C7.90237 3.31658 7.90237 2.68342 8.29289 2.29289Z"
     id="path930" />
</svg>
